{"asset":{"version":"2.0","generator":"THREE.GLTFExporter"},"scenes":[{"nodes":[0],"name":"AuxScene"}],"scene":0,"nodes":[{"mesh":0}],"bufferViews":[{"buffer":0,"byteOffset":0,"byteLength":145620,"target":34962,"byteStride":12},{"buffer":0,"byteOffset":145620,"byteLength":145620,"target":34962,"byteStride":12}],"buffers":[{"byteLength":291240,"uri":"data:application/octet-stream;base64,"}],"accessors":[{"bufferView":0,"componentType":5126,"count":12135,"max":[100.61190795898438,26.595970153808594,100.61190795898438],"min":[-100.78809356689453,0.5959699749946594,-100.78809356689453],"type":"VEC3"},{"bufferView":1,"componentType":5126,"count":12135,"max":[0.9899498224258423,1,0.9917720556259155],"min":[-0.9899482131004333,0.05196952819824219,-0.9759073257446289],"type":"VEC3"}],"materials":[{"pbrMetallicRoughness":{"baseColorFactor":[0.5019607843137255,0.5019607843137255,0.5019607843137255,1],"metallicFactor":0,"roughnessFactor":1}}],"meshes":[{"primitives":[{"mode":4,"attributes":{"POSITION":0,"NORMAL":1},"material":0}]}]}